HIERARCHY
ROOT Hips
{
	OFFSET 0.000000 8.830580 0.000000
	CHANNELS 6 Xposition Yposition Zposition Zrotation Yrotation Xrotation 
	JOINT Spine
	{
		OFFSET 0.000000 0.010000 0.000000
		CHANNELS 3 Zrotation Yrotation Xrotation
		JOINT Spine1
		{
			OFFSET 0.000000 2.459130 0.000000
			CHANNELS 3 Zrotation Yrotation Xrotation
			JOINT Neck
			{
				OFFSET 0.000000 2.484630 0.000000
				CHANNELS 3 Zrotation Yrotation Xrotation
				JOINT Head_virtual
				{
					OFFSET 0.000000 0.000000 0.000000
					CHANNELS 3 Zrotation Yrotation Xrotation
					JOINT Head
					{
						OFFSET 0.000000 0.927525 0.000000
						CHANNELS 3 Zrotation Yrotation Xrotation
						End Site
						{
							OFFSET 0.000000 0.000000 0.000000
						}
					}
				}
				JOINT LeftUpArm_virtual
				{
					OFFSET 0.000000 0.000000 0.000000
					CHANNELS 3 Zrotation Yrotation Xrotation
					JOINT LeftUpArm
					{
						OFFSET 1.248820 0.000000 0.000000
						CHANNELS 3 Zrotation Yrotation Xrotation
						JOINT LeftForeArm
						{
							OFFSET 2.597580 0.000000 0.000000
							CHANNELS 3 Zrotation Yrotation Xrotation
							JOINT LeftHand
							{
								OFFSET 2.455420 0.000000 0.000000
								CHANNELS 3 Zrotation Yrotation Xrotation
								End Site
								{
									OFFSET 0.000000 0.000000 0.000000
								}
							}
						}
					}
				}
				JOINT RightUpArm_virtual
				{
					OFFSET -0.000000 -0.000000 -0.000000
					CHANNELS 3 Zrotation Yrotation Xrotation
					JOINT RightUpArm
					{
						OFFSET -1.248820 -0.000000 -0.000000
						CHANNELS 3 Zrotation Yrotation Xrotation
						JOINT RightForeArm
						{
							OFFSET -2.597580 -0.000000 -0.000000
							CHANNELS 3 Zrotation Yrotation Xrotation
							JOINT RightHand
							{
								OFFSET -2.455420 -0.000000 -0.000000
								CHANNELS 3 Zrotation Yrotation Xrotation
								End Site
								{
									OFFSET 0.000000 0.000000 0.000000
								}
							}
						}
					}
				}
			}
		}
	}
	JOINT LeftUpLeg
	{
		OFFSET 1.271939 0.000000 0.000000
		CHANNELS 3 Zrotation Yrotation Xrotation
		JOINT LeftLowLeg
		{
			OFFSET 0.000000 -4.342910 0.000000
			CHANNELS 3 Zrotation Yrotation Xrotation
			JOINT LeftFoot
			{
				OFFSET 0.000000 -4.487670 0.000000
				CHANNELS 3 Zrotation Yrotation Xrotation
				JOINT LeftToeBase
				{
					OFFSET 0.000000 0.000000 1.515070
					CHANNELS 3 Zrotation Yrotation Xrotation
					End Site
					{
						OFFSET 0.000000 0.000000 0.000000
					}
				}
			}
		}
	}
	JOINT RightUpLeg
	{
		OFFSET -1.271939 0.000000 0.000000
		CHANNELS 3 Zrotation Yrotation Xrotation
		JOINT RightLowLeg
		{
			OFFSET 0.000000 -4.342910 0.000000
			CHANNELS 3 Zrotation Yrotation Xrotation
			JOINT RightFoot
			{
				OFFSET 0.000000 -4.487670 0.000000
				CHANNELS 3 Zrotation Yrotation Xrotation
				JOINT RightToeBase
				{
					OFFSET 0.000000 0.000000 1.515070
					CHANNELS 3 Zrotation Yrotation Xrotation
					End Site
					{
						OFFSET 0.000000 0.000000 0.000000
					}
				}
			}
		}
	}
}
MOTION
Frames: 8
Frame Time: 0.041667
-14.511481 8.718877 40.513938 -166.136308 -17.035145 174.756837 9.474136 -0.010566 -13.854800 5.224500 -3.821702 18.970591 0.000000 0.000000 0.000000 17.298682 2.483032 0.608218 -14.637825 -16.893291 -79.761863 -23.742901 3.953800 4.798940 -39.915199 8.000590 -11.724800 180.000000 -66.800003 180.000000 32.232300 22.606400 51.309399 23.418400 -10.368900 -0.560530 28.227100 -10.568000 7.901001 -180.000000 61.814003 -180.000000 -9.936010 -31.458401 13.593100 27.164665 -29.765455 -19.617505 0.000000 0.000000 36.356800 -11.188567 21.170799 -11.588154 0.000000 0.000000 -11.878440 22.868782 24.757893 2.201628 0.000000 0.000000 4.848010 6.431341 -26.804033 4.270462 0.000000 0.000000 -19.268030 
-14.507787 8.714776 40.520455 -166.048800 -17.030137 174.786304 9.416315 0.010601 -13.960600 5.260134 -3.737922 18.775030 0.000000 0.000000 0.000000 16.425709 3.226482 1.139921 -14.402471 -17.172583 -79.902043 -23.953800 3.852720 4.392860 -43.653099 6.566440 -14.889800 -180.000000 -63.736000 -180.000000 35.146702 22.393801 38.082100 23.559200 -9.942250 -0.578601 32.597698 -10.888300 4.419006 180.000000 63.045998 180.000000 -22.857201 -19.945499 5.714190 27.313924 -29.855331 -19.855717 0.000000 0.000000 36.600601 -11.081541 21.379886 -11.626829 0.000000 0.000000 -11.854020 22.906160 24.756340 2.101048 0.000000 0.000000 4.836280 6.548588 -26.724263 4.200023 0.000000 0.000000 -19.246880 
-14.504036 8.711328 40.523373 -165.959651 -17.040837 174.817347 9.340654 -0.011373 -14.183100 5.415766 -3.669171 18.687520 0.000000 0.000000 0.000000 15.479359 3.833192 1.547618 -14.231656 -17.523632 -79.841795 -24.059401 3.769350 3.897230 -46.756100 5.056410 -15.317900 180.000000 -61.041000 -180.000000 41.373299 24.712601 29.635700 23.659100 -9.671000 -0.687905 36.453701 -10.717500 3.052002 -180.000000 61.290001 -180.000000 -36.581902 -21.393801 1.697930 27.456466 -29.970678 -20.070114 0.000000 0.000000 36.826302 -10.878479 21.658964 -11.642047 0.000000 0.000000 -11.854780 22.959955 24.731176 2.040954 0.000000 0.000000 4.780380 6.589051 -26.660236 4.187471 0.000000 0.000000 -19.258240 
-14.500911 8.709966 40.525472 -165.910624 -17.012620 174.824125 9.308473 0.033745 -14.339203 5.455299 -3.578268 18.604898 0.000000 0.000000 0.000000 14.684985 4.318631 1.843116 -14.177410 -17.817273 -79.787798 -23.802401 3.657590 3.664110 -49.464401 3.846480 -14.085300 180.000000 -58.858002 -180.000000 46.710201 25.438900 20.877501 23.762699 -9.476490 -0.897741 40.440399 -10.279000 -0.679993 -180.000000 60.096001 -180.000000 -37.995998 -20.721100 -10.652200 27.514614 -30.100830 -20.153923 0.000000 0.000000 36.937199 -10.607365 22.035918 -11.594891 0.000000 0.000000 -11.864770 22.998037 24.763480 2.018388 0.000000 0.000000 4.754830 6.655395 -26.619041 4.182713 0.000000 0.000000 -19.240630 
-14.498453 8.708970 40.527643 -165.901904 -16.959492 174.911211 9.314385 0.087848 -14.528017 5.359153 -3.506227 18.531847 0.000000 0.000000 0.000000 14.089115 4.609916 1.922841 -14.425718 -17.940839 -79.545890 -23.794100 3.554730 3.673480 -51.133499 2.691100 -12.451100 180.000000 -56.960999 180.000000 50.367100 26.120899 14.816400 23.771400 -9.496090 -1.149600 44.016800 -9.570420 -3.268005 -180.000000 58.719002 -180.000000 -39.359600 -22.141199 -16.437599 27.553456 -30.171081 -20.286887 0.000000 0.000000 37.057098 -10.325529 22.418368 -11.536402 0.000000 0.000000 -11.819130 22.967038 24.822023 1.898749 0.000000 0.000000 4.796070 6.772914 -26.526046 4.129216 0.000000 0.000000 -19.261480 
-14.494741 8.710283 40.524418 -165.918369 -16.918938 174.729266 9.239573 0.086968 -14.522217 5.280866 -3.476696 18.557698 0.000000 0.000000 0.000000 13.658801 4.758265 1.836334 -14.862093 -17.925957 -79.175139 -23.745100 3.352930 3.939830 -52.181999 1.809270 -10.570500 180.000000 -55.528999 -180.000000 53.492699 25.161301 14.136600 23.737301 -9.616020 -1.523410 47.126301 -9.048020 -4.781006 -180.000000 57.598000 -180.000000 -41.549599 -22.745001 -20.146799 27.429576 -30.392861 -20.042022 0.000000 0.000000 37.044498 -10.138608 22.754270 -11.470759 0.000000 0.000000 -11.790860 23.072511 24.772434 2.093213 0.000000 0.000000 4.831620 6.685500 -26.539395 4.188635 0.000000 0.000000 -19.266040 
-14.491780 8.710894 40.523263 -165.973277 -16.870724 174.560414 9.175937 0.080207 -14.466214 5.155513 -3.466457 18.553281 0.000000 0.000000 0.000000 13.291521 4.839296 1.615521 -15.270367 -17.879375 -78.805974 -23.851500 3.118350 4.391420 -52.439800 1.195830 -8.610550 180.000000 -54.665001 -180.000000 56.107101 22.514601 17.403500 23.733101 -9.755510 -1.761600 49.693199 -8.513380 -5.515015 180.000000 56.831001 180.000000 -46.223999 -22.798901 -11.267500 27.275509 -30.635625 -19.809327 0.000000 0.000000 37.036999 -10.061340 23.022333 -11.424316 0.000000 0.000000 -11.801440 23.130374 24.693232 2.248841 0.000000 0.000000 4.919820 6.661191 -26.507807 4.172833 0.000000 0.000000 -19.264140 
-14.489349 8.711371 40.521729 -166.020092 -16.810680 174.542462 9.145873 0.055234 -14.541607 4.995739 -3.474224 18.525281 0.000000 0.000000 0.000000 12.910079 4.988080 1.364866 -15.581245 -17.812832 -78.510403 -24.056499 2.945410 4.768560 -52.063099 0.946593 -6.806160 180.000000 -54.382004 -180.000000 56.610298 19.744699 21.959200 23.787500 -9.735710 -1.759250 51.545898 -8.045750 -5.921997 -180.000000 56.787003 -180.000000 -50.083500 -21.503599 -8.734860 27.206970 -30.759172 -19.729750 0.000000 0.000000 37.042400 -10.026244 23.222627 -11.391072 0.000000 0.000000 -11.799510 23.131753 24.679094 2.260044 0.000000 0.000000 4.997980 6.626520 -26.476180 4.168666 0.000000 0.000000 -19.272110 
